<?xml version="1.0" standalone="no"?>
<!DOCTYPE svg PUBLIC "-//W3C//DTD SVG 20010904//EN"
 "http://www.w3.org/TR/2001/REC-SVG-20010904/DTD/svg10.dtd">
<svg version="1.0" xmlns="http://www.w3.org/2000/svg"
 width="512.000000pt" height="512.000000pt" viewBox="0 0 512.000000 512.000000"
 preserveAspectRatio="xMidYMid meet">
<metadata>
Created by potrace 1.16, written by Peter Selinger 2001-2019
</metadata>
<g transform="translate(0.000000,512.000000) scale(0.100000,-0.100000)"
fill="#000000" stroke="none">
<path d="M2255 5108 c-461 -52 -936 -253 -1310 -553 -119 -96 -342 -326 -432
-446 -210 -280 -361 -598 -443 -931 -58 -236 -65 -307 -64 -628 0 -174 5 -307
11 -325 10 -30 10 -30 17 20 81 575 325 1075 716 1465 335 336 686 521 1150
607 136 25 505 25 645 -1 360 -65 669 -202 939 -413 96 -76 278 -261 348 -354
290 -388 398 -865 302 -1337 -38 -188 -133 -418 -240 -577 -231 -347 -552
-570 -934 -652 -117 -25 -380 -25 -503 0 -499 100 -892 451 -1014 905 -24 87
-27 115 -27 272 0 158 3 185 27 275 50 188 154 370 286 503 125 126 237 192
418 244 68 20 100 23 258 22 208 0 280 -15 425 -86 69 -34 102 -59 175 -133
74 -73 99 -106 132 -175 54 -109 73 -187 73 -291 0 -168 -63 -320 -179 -438
-260 -263 -663 -268 -922 -11 -175 173 -236 403 -172 650 l6 25 -27 -25 c-43
-39 -120 -160 -154 -241 -48 -116 -66 -222 -59 -358 11 -235 93 -410 272 -579
213 -203 482 -302 780 -289 280 13 518 121 725 328 274 274 416 642 397 1029
-12 261 -93 504 -240 719 -78 116 -301 333 -430 420 -277 187 -582 286 -917
298 -301 11 -564 -42 -825 -167 -392 -188 -763 -579 -956 -1010 -139 -311
-199 -593 -199 -938 0 -430 95 -751 309 -1042 24 -33 98 -113 165 -178 339
-329 753 -553 1216 -656 179 -39 343 -56 560 -56 422 0 785 84 1144 264 272
137 480 290 696 512 393 404 636 910 705 1464 20 163 20 477 0 640 -57 457
-245 907 -532 1273 -84 107 -355 372 -464 454 -362 271 -787 443 -1229 498
-137 17 -489 19 -625 3z"/>
<path d="M2443 2872 c-228 -81 -313 -347 -176 -549 152 -225 501 -195 624 55
20 40 24 62 24 152 0 95 -3 111 -28 162 -32 65 -104 135 -174 168 -67 32 -197
38 -270 12z"/>
</g>
</svg>
