<?xml version="1.0" standalone="no"?>
<!DOCTYPE svg PUBLIC "-//W3C//DTD SVG 20010904//EN"
 "http://www.w3.org/TR/2001/REC-SVG-20010904/DTD/svg10.dtd">
<svg version="1.0" xmlns="http://www.w3.org/2000/svg"
 width="205.000000pt" height="221.000000pt" viewBox="0 0 205.000000 221.000000"
 preserveAspectRatio="xMidYMid meet">
<metadata>
Created by potrace 1.16, written by Peter Selinger 2001-2019
</metadata>
<g transform="translate(0.000000,221.000000) scale(0.100000,-0.100000)"
fill="#000000" stroke="none">
<path d="M820 2040 c-8 -5 -31 -7 -50 -4 -32 5 -37 3 -48 -21 -7 -14 -12 -43
-12 -65 0 -28 -6 -43 -23 -57 -13 -10 -31 -30 -41 -45 -23 -36 -5 -37 36 -3
16 14 34 25 38 25 5 0 14 -18 20 -39 8 -31 25 -51 44 -51 1 0 -1 25 -4 56 -3
30 -3 57 1 60 10 6 19 -22 19 -60 0 -35 23 -76 36 -63 13 13 15 55 5 92 -7 28
-7 35 5 35 14 0 17 -15 18 -95 1 -29 5 -40 16 -40 11 0 15 14 16 58 1 31 4 60
7 63 10 10 19 -43 15 -86 -2 -27 0 -40 9 -40 12 0 23 34 52 155 13 52 18 62
26 53 3 -3 1 -17 -4 -31 -9 -23 -7 -26 20 -32 37 -8 82 1 125 27 39 23 50 49
32 78 -14 23 -14 23 -142 1 -49 -9 -65 -8 -92 5 -19 9 -41 14 -49 10 -9 -3
-26 1 -38 9 -15 9 -27 11 -37 5z"/>
<path d="M975 1823 c-10 -37 -21 -71 -25 -76 -7 -8 -138 8 -186 24 -25 8 -33
17 -38 45 -6 30 -9 33 -26 24 -23 -12 -25 -41 -8 -104 14 -53 1 -109 -36 -153
-38 -46 -56 -89 -56 -135 0 -43 -1 -44 -75 -93 -130 -85 -175 -173 -175 -341
0 -121 25 -214 96 -358 43 -86 61 -112 153 -216 44 -50 179 -160 197 -160 5 0
30 -11 55 -25 97 -51 264 -55 369 -9 73 33 150 114 178 188 12 32 22 67 22 78
0 31 40 156 54 167 7 6 42 16 79 23 63 12 67 14 67 40 0 15 -4 47 -10 70 -20
87 -70 355 -70 376 0 30 -11 28 -46 -9 -84 -89 -451 -180 -734 -181 -125 -1
-182 10 -248 49 -100 57 -108 147 -20 229 30 29 116 80 123 72 1 -2 7 -13 13
-24 11 -20 7 -25 -41 -54 -48 -29 -97 -82 -97 -106 0 -5 10 -21 23 -36 32 -40
136 -60 302 -59 155 1 285 21 419 62 259 80 330 191 172 269 -34 17 -70 32
-81 35 -67 15 -77 21 -90 58 -7 20 -21 49 -31 63 -68 94 -72 110 -52 205 10
48 9 60 -3 75 -17 21 -61 40 -115 48 l-41 7 -18 -68z m348 -427 c58 -21 77
-43 77 -88 0 -29 -8 -47 -33 -74 -30 -33 -43 -39 -143 -60 -292 -63 -530 -82
-614 -48 -59 24 -77 72 -32 88 9 3 32 17 51 31 l34 25 24 -22 23 -22 -31 -13
c-17 -7 -28 -17 -25 -21 7 -11 175 -27 281 -26 60 0 92 6 129 22 27 12 76 29
109 38 33 8 83 27 110 40 l49 25 -23 25 c-12 13 -33 24 -45 24 -28 0 -38 14
-30 46 7 28 30 30 89 10z"/>
</g>
</svg>
