<svg xmlns="http://www.w3.org/2000/svg" width="682.667" height="682.667" version="1.0" viewBox="0 0 512 512"><path d="M225.5 1.2c-46.1 5.2-93.6 25.3-131 55.3-11.9 9.6-34.2 32.6-43.2 44.6-21 28-36.1 59.8-44.3 93.1C1.2 217.8.5 224.9.6 257c0 17.4.5 30.7 1.1 32.5 1 3 1 3 1.7-2C11.5 230 35.9 180 75 141c33.5-33.6 68.6-52.1 115-60.7 13.6-2.5 50.5-2.5 64.5.1 36 6.5 66.9 20.2 93.9 41.3 9.6 7.6 27.8 26.1 34.8 35.4 29 38.8 39.8 86.5 30.2 133.7-3.8 18.8-13.3 41.8-24 57.7-23.1 34.7-55.2 57-93.4 65.2-11.7 2.5-38 2.5-50.3 0-49.9-10-89.2-45.1-101.4-90.5-2.4-8.7-2.7-11.5-2.7-27.2 0-15.8.3-18.5 2.7-27.5 5-18.8 15.4-37 28.6-50.3 12.5-12.6 23.7-19.2 41.8-24.4 6.8-2 10-2.3 25.8-2.2 20.8 0 28 1.5 42.5 8.6 6.9 3.4 10.2 5.9 17.5 13.3 7.4 7.3 9.9 10.6 13.2 17.5 5.4 10.9 7.3 18.7 7.3 29.1 0 16.8-6.3 32-17.9 43.8-26 26.3-66.3 26.8-92.2 1.1-17.5-17.3-23.6-40.3-17.2-65l.6-2.5-2.7 2.5c-4.3 3.9-12 16-15.4 24.1-4.8 11.6-6.6 22.2-5.9 35.8 1.1 23.5 9.3 41 27.2 57.9 21.3 20.3 48.2 30.2 78 28.9 28-1.3 51.8-12.1 72.5-32.8 27.4-27.4 41.6-64.2 39.7-102.9-1.2-26.1-9.3-50.4-24-71.9-7.8-11.6-30.1-33.3-43-42-27.7-18.7-58.2-28.6-91.7-29.8-30.1-1.1-56.4 4.2-82.5 16.7-39.2 18.8-76.3 57.9-95.6 101C37 256.1 31 284.3 31 318.8c0 43 9.5 75.1 30.9 104.2 2.4 3.3 9.8 11.3 16.5 17.8 33.9 32.9 75.3 55.3 121.6 65.6 17.9 3.9 34.3 5.6 56 5.6 42.2 0 78.5-8.4 114.4-26.4 27.2-13.7 48-29 69.6-51.2 39.3-40.4 63.6-91 70.5-146.4 2-16.3 2-47.7 0-64-5.7-45.7-24.5-90.7-53.2-127.3-8.4-10.7-35.5-37.2-46.4-45.4C374.7 24.2 332.2 7 288 1.5c-13.7-1.7-48.9-1.9-62.5-.3"/><path d="M244.3 224.8c-22.8 8.1-31.3 34.7-17.6 54.9 15.2 22.5 50.1 19.5 62.4-5.5 2-4 2.4-6.2 2.4-15.2 0-9.5-.3-11.1-2.8-16.2-3.2-6.5-10.4-13.5-17.4-16.8-6.7-3.2-19.7-3.8-27-1.2"/></svg>